<svg width="100" height="100" viewBox="0 0 24 24" xmlns="http://www.w3.org/2000/svg" fill="none"><path d="M19.9 2.307c-.161-.41-.738-.41-.899 0l-.43 1.095c-.049.125-.148.224-.272.273l-1.091.432c-.408.162-.408.741 0 .903l1.091.432c.125.049.223.148.272.273l.43 1.095c.161.41.739.41.899 0l.43-1.095c.049-.125.148-.224.272-.273l1.091-.432c.408-.162.408-.741 0-.903l-1.091-.432c-.125-.049-.223-.148-.272-.273l-.43-1.095zM16.033 8.13c-.161-.41-.739-.41-.9 0l-.157.399c-.049.125-.148.224-.272.273l-.398.158c-.408.162-.408.741 0 .903l.398.157c.125.049.223.148.272.273l.157.399c.161.41.739.41.9 0l.157-.399c.049-.125.148-.224.272-.273l.398-.157c.408-.162.408-.741 0-.903l-.398-.158c-.125-.049-.223-.148-.272-.273l-.157-.399zM12 22c5.523 0 10-4.477 10-10 0-.463-.694-.539-.933-.143-1.138 1.884-3.206 3.143-5.567 3.143-3.59 0-6.5-2.91-6.5-6.5 0-2.362 1.259-4.429 3.143-5.567.396-.239.319-.933-.143-.933-5.523 0-10 4.477-10 10s4.477 10 10 10z" fill="#383838"/></svg>