<?xml version="1.0" encoding="UTF-8" standalone="no"?>
<!-- Generator: Adobe Illustrator 18.1.1, SVG Export Plug-In . SVG Version: 6.00 Build 0)  -->

<svg
   version="1.1"
   id="Capa_1"
   x="0px"
   y="0px"
   viewBox="0 0 202.219 202.219"
   style="enable-background:new 0 0 202.219 202.219;"
   xml:space="preserve"
   sodipodi:docname="calendarnext.svg"
   inkscape:version="1.2.1 (9c6d41e410, 2022-07-14)"
   xmlns:inkscape="http://www.inkscape.org/namespaces/inkscape"
   xmlns:sodipodi="http://sodipodi.sourceforge.net/DTD/sodipodi-0.dtd"
   xmlns="http://www.w3.org/2000/svg"
   xmlns:svg="http://www.w3.org/2000/svg"><defs
   id="defs417" /><sodipodi:namedview
   id="namedview415"
   pagecolor="#ffffff"
   bordercolor="#000000"
   borderopacity="0.25"
   inkscape:showpageshadow="2"
   inkscape:pageopacity="0.0"
   inkscape:pagecheckerboard="0"
   inkscape:deskcolor="#d1d1d1"
   showgrid="false"
   inkscape:zoom="4.1390771"
   inkscape:cx="100.9887"
   inkscape:cy="101.2303"
   inkscape:window-width="1920"
   inkscape:window-height="1017"
   inkscape:window-x="-8"
   inkscape:window-y="-8"
   inkscape:window-maximized="1"
   inkscape:current-layer="Capa_1" />
<g
   id="g382">
	<g
   id="g380">
		<g
   id="g374">
			<path
   style="fill:#fff;"
   d="M179.859,22.053V5.712h-6.871v16.341h-24.762V5.712h-6.879v16.341h-27.636V5.712h-6.875v16.341     H78.141V5.712h-6.871v16.341H43.759V5.712H36.88v16.341H14.519v92.184h6.242V67.096h175.224v123.177H20.761v-55.64h-6.242v61.875     h187.7V22.053H179.859z M195.985,60.858H20.761V28.284H36.88v14.688h6.879V28.284h27.511v14.688h6.871V28.284h28.695v14.688     h6.879V28.284h27.636v14.688h6.879V28.284h24.762v14.688h6.871V28.284h16.126v32.575H195.985z"
   id="path372" />
		</g>
		<g
   id="g378">
			<polygon
   style="fill:#ffffff"
   points="62.501,163.21 101.274,124.437 62.501,85.663 58.163,90.005 89.518,121.366 0,121.366 0,127.507 89.518,127.507 58.163,158.854 "
   id="polygon376"
   transform="translate(20)" />
		</g>
	</g>
</g>
<g
   id="g384">
</g>
<g
   id="g386">
</g>
<g
   id="g388">
</g>
<g
   id="g390">
</g>
<g
   id="g392">
</g>
<g
   id="g394">
</g>
<g
   id="g396">
</g>
<g
   id="g398">
</g>
<g
   id="g400">
</g>
<g
   id="g402">
</g>
<g
   id="g404">
</g>
<g
   id="g406">
</g>
<g
   id="g408">
</g>
<g
   id="g410">
</g>
<g
   id="g412">
</g>
</svg>
